<svg width="256" height="262" viewBox="0 0 256 262" fill="none" xmlns="http://www.w3.org/2000/svg">
<path d="M228.11 214.346H27.8902C15.0329 214.346 4.60883 225.014 4.60883 238.173C4.60883 251.331 15.0329 262 27.8902 262H228.11C240.967 262 251.391 251.331 251.391 238.173C251.391 225.013 240.967 214.346 228.11 214.346Z" fill="#F7931A"/>
<path d="M54.2757 199.035C67.1331 199.035 77.5571 188.367 77.5571 175.208V84.1889C77.5571 71.0303 67.1331 60.3619 54.2757 60.3619C41.4184 60.3619 30.9944 71.0303 30.9944 84.1889V175.208C30.994 188.367 41.4184 199.035 54.2757 199.035Z" fill="#F7931A"/>
<path d="M128.001 199.035C140.858 199.035 151.282 188.367 151.282 175.208V54.0084C151.282 40.8497 140.858 30.1814 128.001 30.1814C115.144 30.1814 104.719 40.8497 104.719 54.0084V175.208C104.719 188.367 115.143 199.035 128.001 199.035Z" fill="#F7931A"/>
<path d="M201.723 199.035C214.581 199.035 225.004 188.367 225.004 175.208V23.827C225.005 10.6684 214.582 0 201.723 0C188.866 0 178.442 10.6684 178.442 23.827V175.208C178.442 188.367 188.866 199.035 201.723 199.035Z" fill="#F7931A"/>
</svg>
